<?xml version="1.0" standalone="no"?>
<!DOCTYPE svg PUBLIC "-//W3C//DTD SVG 20010904//EN"
 "http://www.w3.org/TR/2001/REC-SVG-20010904/DTD/svg10.dtd">
<svg version="1.0" xmlns="http://www.w3.org/2000/svg"
 width="216.000000pt" height="233.000000pt" viewBox="0 0 216.000000 233.000000"
 preserveAspectRatio="xMidYMid meet">
<metadata>
Created by potrace 1.10, written by Peter Selinger 2001-2011
</metadata>
<g transform="translate(0.000000,233.000000) scale(0.100000,-0.100000)"
fill="#000000" stroke="none">
<path d="M93 2319 c-17 -5 -43 -23 -57 -40 l-26 -31 0 -1011 c0 -783 3 -1017
13 -1036 6 -13 25 -34 40 -45 27 -20 41 -21 395 -24 202 -2 377 0 389 3 13 3
30 16 39 30 15 23 15 27 0 50 l-16 25 -370 0 c-221 0 -371 4 -375 9 -4 7 -8
1697 -5 1961 0 7 276 9 823 8 l822 -3 3 -469 c1 -326 6 -473 13 -483 18 -21
66 -16 83 9 14 20 16 82 16 481 0 486 -1 499 -48 540 -21 19 -92 40 -92 28 0
-4 20 -24 45 -44 l45 -38 0 -470 c0 -311 -3 -468 -10 -464 -6 4 -10 165 -10
451 l0 446 -29 29 -29 29 -811 0 -810 0 -28 -24 -28 -24 -3 -949 c-1 -521 0
-963 3 -982 4 -18 17 -44 30 -57 l24 -24 356 0 c230 0 355 -4 355 -10 0 -6
-130 -10 -371 -10 l-371 0 -29 29 -29 29 0 993 0 993 50 47 c65 61 66 66 3 48z"/>
<path d="M352 1834 l3 -87 78 1 c42 0 82 1 87 1 7 1 10 32 8 84 l-3 82 -88 3
-88 3 3 -87z m123 1 c0 -40 0 -40 -40 -40 -36 0 -40 2 -43 28 -6 47 4 59 45
55 37 -3 38 -4 38 -43z"/>
<path d="M716 1884 c-19 -18 -21 -65 -4 -82 17 -17 719 -17 736 0 17 17 15 64
-4 82 -13 14 -60 16 -364 16 -304 0 -351 -2 -364 -16z m689 -44 c-8 -14 -642
-14 -650 0 -4 7 107 10 325 10 218 0 329 -3 325 -10z"/>
<path d="M465 1393 l-58 -46 -17 22 c-19 26 -57 26 -74 -1 -9 -14 -3 -26 34
-63 24 -25 49 -45 56 -45 9 0 120 84 158 121 13 12 -10 59 -28 59 -8 0 -40
-21 -71 -47z"/>
<path d="M682 1408 c-17 -17 -15 -64 4 -82 13 -14 60 -16 363 -16 324 0 349 1
364 18 20 22 22 63 5 80 -17 17 -719 17 -736 0z m698 -38 c0 -6 -117 -10 -330
-10 -213 0 -330 4 -330 10 0 6 117 10 330 10 213 0 330 -4 330 -10z"/>
<path d="M1502 1034 c-88 -23 -163 -66 -233 -131 -109 -103 -163 -230 -161
-383 2 -233 149 -428 371 -494 86 -25 244 -22 325 8 167 60 287 190 331 357
31 117 13 278 -43 383 -38 72 -154 185 -224 219 -118 56 -253 72 -366 41z
m233 -89 c127 -34 230 -120 288 -242 30 -64 32 -75 32 -179 0 -107 -1 -112
-38 -186 -85 -173 -274 -272 -454 -239 -219 40 -363 211 -363 429 0 281 264
487 535 417z m-69 -910 c-11 -8 -27 -15 -36 -15 -9 0 -25 7 -36 15 -17 13 -15
14 36 14 51 0 53 -1 36 -14z"/>
<path d="M1606 804 c-13 -13 -16 -43 -16 -168 0 -133 2 -155 18 -168 9 -8 65
-43 124 -77 115 -67 143 -71 154 -25 8 33 0 41 -110 104 l-95 55 -1 137 c0
125 -2 138 -19 148 -27 14 -37 13 -55 -6z"/>
<path d="M350 865 l0 -86 88 3 87 3 0 80 0 80 -87 3 -88 3 0 -86z m125 0 c0
-40 0 -40 -40 -40 -36 0 -40 2 -43 28 -6 47 4 59 45 55 37 -3 38 -4 38 -43z"/>
<path d="M708 905 c-8 -18 -9 -35 -2 -53 l9 -27 152 -3 c164 -3 183 3 183 52
0 49 -24 56 -184 56 l-146 0 -12 -25z m282 -30 c0 -12 -19 -15 -114 -15 -105
0 -136 6 -119 24 3 3 57 6 120 6 94 0 113 -3 113 -15z"/>
</g>
</svg>
