<svg xmlns="http://www.w3.org/2000/svg" viewBox="0 0 916.82 1023.78"><defs><style>.cls-1{fill:currentColor;}</style></defs><g id="Layer_2" data-name="Layer 2"><g id="Layer_1-2" data-name="Layer 1"><path id="Calendar" class="cls-1" d="M866.82,372.47H50v-50H866.82ZM267.35,180.75V25a25,25,0,0,0-50,0V180.75a25,25,0,0,0,50,0Zm216.52,0V25a25,25,0,0,0-50,0V180.75a25,25,0,0,0,50,0Zm215.48,0V25a25,25,0,0,0-50,0V180.75a25,25,0,0,0,50,0ZM846.05,134H70.77A20.8,20.8,0,0,0,50,154.77V953a20.79,20.79,0,0,0,20.77,20.76H846.05A20.79,20.79,0,0,0,866.82,953V154.77A20.8,20.8,0,0,0,846.05,134m0-50a70.77,70.77,0,0,1,70.77,70.77V953a70.77,70.77,0,0,1-70.77,70.76H70.77A70.76,70.76,0,0,1,0,953V154.77A70.76,70.76,0,0,1,70.77,84H846.05Zm-628.7,50h50V84h-50m216.52,0v50h50V84Zm215.48,0v50h50V84Z"/></g></g></svg>