<svg width="552" height="1024" viewBox="0 0 552 1024" fill="none" xmlns="http://www.w3.org/2000/svg">
<path d="M40.5292 2.94065e-05C50.959 -0.0147764 60.9895 4.17955 68.5187 11.7039L539.034 480.449C542.989 484.387 546.138 489.119 548.292 494.359C550.446 499.6 551.56 505.241 551.567 510.942C551.575 516.643 550.475 522.287 548.334 527.534C546.193 532.78 543.056 537.52 539.111 541.469L68.5956 1012.57C60.8155 1020.17 50.4722 1024.28 39.8089 1023.99C29.1457 1023.7 19.0222 1019.03 11.6339 1011.01C4.24565 1002.99 0.18821 992.258 0.341627 981.138C0.495044 970.019 4.84694 959.411 12.4535 951.615L452.456 511.079L12.5205 72.7942C6.67079 66.9631 2.62956 59.4397 0.917345 51.193C-0.794866 42.9464 -0.0996318 34.3543 2.9135 26.5232C5.92662 18.6922 11.1196 11.9809 17.8237 7.25378C24.5278 2.5267 32.4358 0.000305885 40.5292 2.94065e-05Z" fill="currentColor"/>
</svg>
