<?xml version="1.0" encoding="UTF-8"?>
<svg id="Capa_1" data-name="Capa 1" xmlns="http://www.w3.org/2000/svg" viewBox="0 0 512 512">
  <defs>
    <style>
      .cls-1 {
        fill: #fff;
        stroke-width: 0px;
      }
    </style>
  </defs>
  <g id="_26_Compensation" data-name="26 Compensation">
    <path class="cls-1" d="M407.76,212.05l-90.98,84.56c-5.57-18.29-22.41-30.54-41.14-30.54h-100.93c-12.48,0-23.77,5.15-31.89,13.41-5.36-11.41-16.88-19.38-30.3-19.38h-56.83c-18.5,0-33.55,15.05-33.55,33.56v137.69c0,18.5,15.05,33.55,33.55,33.55h56.83c13.42,0,24.94-7.97,30.3-19.38,8.12,8.27,19.41,13.41,31.88,13.41h75.06c18.44,0,36.21-6.75,50.04-19.03l173.79-155.52c21.36-19.08,21.36-51.66,1.9-71.12-18.31-18.31-48.19-19.3-67.73-1.2h0ZM131.46,431.35c0,10.44-8.49,18.93-18.93,18.93h-56.83c-10.44,0-18.93-8.49-18.93-18.93v-137.69c0-10.44,8.49-18.94,18.93-18.94h56.83c10.44,0,18.93,8.5,18.93,18.94v5.93c-2.66,10.25-1.99,118.12,0,125.82v5.95ZM463.85,273.48s0,0,0,0l-173.77,155.5c-11.13,9.88-25.44,15.33-40.31,15.33h-75.06c-13.5,0-24.83-9-28.63-21.27v-121.09c3.8-12.27,15.13-21.26,28.63-21.26h100.93c15.8,0,28.88,12.99,28.28,29.37-5.48,11.94-17.28,19.63-30.49,19.63h-51.36c-4.04,0-7.31,3.27-7.31,7.31s3.27,7.31,7.31,7.31h51.36c18.92,0,35.82-10.99,43.71-28.06l100.58-93.48c13.79-12.77,34.73-11.9,47.45.83,13.97,13.97,13.37,36.78-1.31,49.89h0ZM269.98,47.1c-51.84,0-94.02,42.18-94.02,94.02s42.18,94.02,94.02,94.02,94.02-42.18,94.02-94.02-42.18-94.02-94.02-94.02h0ZM269.98,220.52c-43.78,0-79.4-35.62-79.4-79.4s35.62-79.4,79.4-79.4,79.4,35.62,79.4,79.4-35.62,79.4-79.4,79.4h0ZM260.01,128.16c0,3.12,2.53,5.65,5.65,5.65h8.64c11.18,0,20.27,9.09,20.27,20.27,0,10.15-7.53,18.51-17.29,19.97v10.27c0,4.04-3.27,7.31-7.31,7.31s-7.31-3.27-7.31-7.31v-9.97h-9.97c-4.04,0-7.31-3.27-7.31-7.31s3.27-7.31,7.31-7.31h21.6c3.12,0,5.65-2.53,5.65-5.65s-2.53-5.66-5.65-5.66h-8.64c-11.18,0-20.27-9.09-20.27-20.27,0-10.15,7.53-18.51,17.28-19.97v-10.28c0-4.04,3.27-7.31,7.31-7.31s7.31,3.27,7.31,7.31v9.98h9.98c4.04,0,7.31,3.27,7.31,7.31s-3.27,7.31-7.31,7.31h-21.6c-3.12,0-5.65,2.53-5.65,5.65h0Z"/>
  </g>
</svg>