<svg xmlns="http://www.w3.org/2000/svg" viewBox="0 0 1024 1024"><defs><style>.cls-1{fill:currentColor;}</style></defs><g id="Layer_2" data-name="Layer 2"><g id="Layer_1-2" data-name="Layer 1"><path id="Content" class="cls-1" d="M103.28,1024A103.4,103.4,0,0,1,0,920.72V103.28A103.4,103.4,0,0,1,103.28,0H920.72A103.4,103.4,0,0,1,1024,103.28v543.1a24.91,24.91,0,0,1-49.81,0V103.28a53.52,53.52,0,0,0-53.47-53.47H103.28a53.53,53.53,0,0,0-53.47,53.47V920.72a53.54,53.54,0,0,0,53.47,53.48H623a24.9,24.9,0,1,1,0,49.8ZM818.84,271.21a24.91,24.91,0,1,0,0-49.81H205.12a24.91,24.91,0,1,0,0,49.81Zm0,177.13a24.91,24.91,0,0,0,0-49.82H205.12a24.91,24.91,0,1,0,0,49.82ZM376,625.48a24.91,24.91,0,0,0,0-49.81H205.14a24.91,24.91,0,1,0,0,49.81ZM486.73,802.59a24.91,24.91,0,1,0,0-49.81H205.12a24.91,24.91,0,1,0,0,49.81ZM594.14,590.88a3.11,3.11,0,0,1,.94.14l.13,0,113.85,34.78A89.1,89.1,0,0,1,745.91,648L963,865.11a37.66,37.66,0,0,1,0,53.2L918.29,963a37.75,37.75,0,0,1-53.2,0L648,745.94a89.3,89.3,0,0,1-22.16-36.87L591,595.17a3.2,3.2,0,0,1,.85-3.31,3.17,3.17,0,0,1,2.26-1m0-50a53.36,53.36,0,0,0-50.91,68.94L578,723.68a139.43,139.43,0,0,0,34.61,57.6L829.74,998.39a87.74,87.74,0,0,0,123.92,0l44.71-44.72a87.7,87.7,0,0,0,0-123.91L781.27,612.64A139.29,139.29,0,0,0,723.66,578L609.82,543.24a53.3,53.3,0,0,0-15.68-2.36Z"/></g></g></svg>