<svg xmlns="http://www.w3.org/2000/svg" viewBox="0 0 1024 1024"><defs><style>.cls-1{fill:currentColor;}</style></defs><g id="Layer_2" data-name="Layer 2"><g id="Layer_1-2" data-name="Layer 1"><path id="Crop" class="cls-1" d="M859.78,1024a25.08,25.08,0,0,1-25.09-25.1v-114H164.2a25.25,25.25,0,0,1-17.74-7.35,24.91,24.91,0,0,1-7.35-17.74V189.31h-114a25.1,25.1,0,1,1,0-50.2h114V25.1a25.1,25.1,0,1,1,50.19,0V834.69H998.9a25.08,25.08,0,0,1,25.1,25.1,24.91,24.91,0,0,1-7.35,17.74,25.28,25.28,0,0,1-17.75,7.35h-114v114a25.1,25.1,0,0,1-25.1,25.1Zm0-243.45a25.08,25.08,0,0,1-25.1-25.1V189.31H268.54a25.1,25.1,0,1,1,0-50.2H859.79a25.09,25.09,0,0,1,25.09,25.1V755.45a25.1,25.1,0,0,1-25.09,25.1Z"/></g></g></svg>