<svg xmlns="http://www.w3.org/2000/svg" viewBox="0 0 815.06 1024"><defs><style>.cls-1{fill:currentColor;}</style></defs><g id="Layer_2" data-name="Layer 2"><g id="Layer_1-2" data-name="Layer 1"><path id="Delete" class="cls-1" d="M65.73,350.49H76.24V893.22C76.24,965.15,135.4,1024,207.7,1024H607.34c72.31,0,131.46-58.85,131.46-130.78V350.49h10.52c36.81,0,65.73-28.77,65.73-65.39V177.86c0-36.62-28.92-65.39-65.73-65.39h-163V71.93C586.32,32.69,553.45,0,514,0h-213c-39.44,0-72.31,32.69-72.31,71.93v40.54h-163C28.92,112.47,0,141.24,0,177.86V285.1c0,35.3,30.24,65.39,65.73,65.39ZM686.22,893.22c0,43.16-35.5,78.47-78.88,78.47H207.7c-43.38,0-78.88-35.31-78.88-78.47V350.49H686.22ZM281.32,71.93c0-10.46,9.21-19.61,19.72-19.61H512.69c10.51,0,19.71,9.16,19.71,19.61v40.54H281.31ZM52.58,177.86c0-7.84,5.26-13.08,13.15-13.08h683.6c7.88,0,13.15,5.23,13.15,13.08V285.11c0,7.85-5.26,13.08-13.15,13.08H65.73c-7.88,0-13.15-5.23-13.15-13.09Zm214.92,669a25,25,0,0,1-25-25V490a25,25,0,0,1,50,0V821.85A25,25,0,0,1,267.5,846.85Zm140,0a25,25,0,0,1-25-25V490a25,25,0,0,1,50,0V821.85A25,25,0,0,1,407.53,846.85Zm140,0a25,25,0,0,1-25-25V490a25,25,0,0,1,50,0V821.85A25,25,0,0,1,547.53,846.85Z"/></g></g></svg>