<svg xmlns="http://www.w3.org/2000/svg" viewBox="0 0 1024 649.04"><defs><style>.cls-1{fill:currentColor;}</style></defs><g id="Layer_2" data-name="Layer 2"><g id="Layer_1-2" data-name="Layer 1"><path id="Email" class="cls-1" d="M78,649c-43,0-78-35.32-78-78.72V78.73C0,35.32,35,0,78,0H946c43,0,78,35.32,78,78.73V570.32c0,43.4-35,78.72-78,78.72ZM50.22,76c-.09,1-.13,1.87-.13,2.74V570.3A28.06,28.06,0,0,0,78,598.48H946a28.07,28.07,0,0,0,27.89-28.18V78.72c0-.91,0-1.84-.14-2.76l-.32-3.36L592.61,327.31a144.87,144.87,0,0,1-161.24,0L50.53,72.58ZM459,285.15a95.23,95.23,0,0,0,106,0L915.76,50.55H108.23Z"/></g></g></svg>