<svg width="88" height="88" viewBox="0 0 88 88" fill="none" xmlns="http://www.w3.org/2000/svg">
<circle cx="44" cy="44" r="44" fill="#D9D9D9"/>
<circle cx="41.6843" cy="47.2421" r="38.9053" fill="white"/>
<circle r="7.41053" transform="matrix(-1 0 0 1 74.1053 29.6421)" fill="white"/>
<circle r="3.70526" transform="matrix(-1 0 0 1 74.1053 29.6421)" fill="#162952"/>
<path d="M19.9908 45.0449H22.4723C23.2672 45.0449 23.9225 44.9106 24.4381 44.642C24.9537 44.3627 25.3351 43.976 25.5822 43.4819C25.84 42.977 25.9689 42.3915 25.9689 41.7255C25.9689 41.124 25.8507 40.5922 25.6144 40.1303C25.3888 39.6577 25.0397 39.2924 24.567 39.0346C24.0944 38.7661 23.4982 38.6318 22.7784 38.6318C22.2091 38.6318 21.6827 38.7446 21.1993 38.9702C20.7159 39.1957 20.3292 39.5126 20.0392 39.9208C19.7491 40.329 19.6041 40.8232 19.6041 41.4033H14.9474C14.9474 40.1142 15.2911 38.9916 15.9786 38.0356C16.6769 37.0795 17.6115 36.3329 18.7823 35.7958C19.9532 35.2587 21.2423 34.9902 22.6495 34.9902C24.2394 34.9902 25.6305 35.248 26.8229 35.7636C28.0153 36.2685 28.9445 37.0151 29.6105 38.0034C30.2765 38.9916 30.6095 40.2162 30.6095 41.6772C30.6095 42.4184 30.4376 43.1381 30.0939 43.8364C29.7501 44.5239 29.256 45.1469 28.6115 45.7055C27.9777 46.2534 27.2042 46.6938 26.2911 47.0268C25.3781 47.3491 24.3522 47.5102 23.2135 47.5102H19.9908V45.0449ZM19.9908 48.5737V46.1728H23.2135C24.4918 46.1728 25.6144 46.3178 26.5812 46.6078C27.548 46.8979 28.359 47.3168 29.0143 47.8647C29.6696 48.4018 30.1637 49.041 30.4967 49.7822C30.8297 50.5126 30.9962 51.3237 30.9962 52.2153C30.9962 53.311 30.7867 54.2885 30.3678 55.1479C29.9489 55.9965 29.358 56.7162 28.5953 57.3071C27.8434 57.8979 26.9625 58.3491 25.9528 58.6606C24.943 58.9614 23.8419 59.1118 22.6495 59.1118C21.6613 59.1118 20.6891 58.9775 19.733 58.7089C18.7877 58.4296 17.9283 58.0161 17.1549 57.4682C16.3922 56.9096 15.7799 56.2114 15.318 55.3735C14.8668 54.5248 14.6412 53.5204 14.6412 52.3603H19.298C19.298 52.9619 19.4484 53.499 19.7491 53.9716C20.0499 54.4443 20.4635 54.8149 20.9899 55.0834C21.527 55.352 22.1232 55.4863 22.7784 55.4863C23.5197 55.4863 24.1534 55.352 24.6798 55.0834C25.2169 54.8041 25.6251 54.4174 25.9044 53.9233C26.1945 53.4184 26.3395 52.8329 26.3395 52.1669C26.3395 51.3076 26.1837 50.6201 25.8722 50.1044C25.5607 49.5781 25.1149 49.1913 24.5348 48.9443C23.9547 48.6972 23.2672 48.5737 22.4723 48.5737H19.9908ZM46.1588 35.0869H46.8356V38.7929H46.5616C45.337 38.7929 44.2467 38.9755 43.2906 39.3408C42.3346 39.706 41.5236 40.227 40.8575 40.9037C40.2023 41.5698 39.6974 42.3754 39.3429 43.3207C38.9991 44.2661 38.8273 45.3242 38.8273 46.4951V50.3945C38.8273 51.2324 38.9078 51.9736 39.069 52.6181C39.2408 53.2519 39.4825 53.7836 39.7941 54.2133C40.1163 54.6323 40.4923 54.9492 40.922 55.164C41.3517 55.3681 41.8351 55.4702 42.3722 55.4702C42.8771 55.4702 43.3336 55.3627 43.7418 55.1479C44.1608 54.933 44.5153 54.6323 44.8053 54.2455C45.1061 53.8481 45.3317 53.3862 45.4821 52.8598C45.6432 52.3227 45.7238 51.7372 45.7238 51.1035C45.7238 50.4697 45.6432 49.8842 45.4821 49.3471C45.3317 48.81 45.1061 48.3481 44.8053 47.9614C44.5045 47.5639 44.1393 47.2578 43.7096 47.0429C43.2799 46.8281 42.7965 46.7206 42.2594 46.7206C41.5289 46.7206 40.8844 46.8925 40.3258 47.2363C39.778 47.5693 39.3483 47.999 39.0367 48.5253C38.7252 49.0517 38.5587 49.6049 38.5372 50.185L37.1354 49.2827C37.1676 48.4555 37.3395 47.6713 37.651 46.9301C37.9733 46.1889 38.4137 45.5336 38.9723 44.9643C39.5416 44.3842 40.2238 43.933 41.0187 43.6108C41.8136 43.2778 42.7106 43.1113 43.7096 43.1113C44.8053 43.1113 45.7667 43.3207 46.5939 43.7397C47.4318 44.1586 48.13 44.7333 48.6886 45.4638C49.2472 46.1943 49.6661 47.0375 49.9454 47.9936C50.2247 48.9496 50.3644 49.9702 50.3644 51.0551C50.3644 52.1938 50.1764 53.2519 49.8004 54.2294C49.4352 55.207 48.9034 56.061 48.2052 56.7914C47.5177 57.5219 46.6906 58.0912 45.7238 58.4995C44.757 58.9077 43.672 59.1118 42.4689 59.1118C41.2228 59.1118 40.0895 58.8862 39.069 58.435C38.0592 57.9731 37.1891 57.3286 36.4586 56.5014C35.7281 55.6743 35.1642 54.6913 34.7667 53.5527C34.38 52.414 34.1866 51.1679 34.1866 49.8144V48.0097C34.1866 46.1191 34.4606 44.3896 35.0084 42.8212C35.567 41.2421 36.3673 39.8779 37.4093 38.7285C38.4513 37.5683 39.7081 36.6713 41.1798 36.0375C42.6515 35.4037 44.3112 35.0869 46.1588 35.0869ZM68.9269 44.9965V49.0571C68.9269 50.8188 68.7389 52.3388 68.3629 53.6171C67.9869 54.8847 67.4445 55.9267 66.7355 56.7431C66.0372 57.5488 65.2047 58.145 64.2379 58.5317C63.2711 58.9184 62.1969 59.1118 61.0153 59.1118C60.0699 59.1118 59.1891 58.9936 58.3727 58.7573C57.5563 58.5102 56.8204 58.1288 56.1652 57.6132C55.5206 57.0976 54.962 56.4477 54.4894 55.6635C54.0275 54.8686 53.673 53.9233 53.4259 52.8276C53.1788 51.7319 53.0553 50.475 53.0553 49.0571V44.9965C53.0553 43.2348 53.2433 41.7255 53.6193 40.4687C54.006 39.2011 54.5485 38.1645 55.2467 37.3588C55.9557 36.5532 56.7936 35.9623 57.7604 35.5864C58.7272 35.1996 59.8014 35.0063 60.983 35.0063C61.9283 35.0063 62.8038 35.1298 63.6095 35.3769C64.4259 35.6132 65.1617 35.9838 65.817 36.4887C66.4723 36.9936 67.0309 37.6435 67.4928 38.4384C67.9547 39.2226 68.3092 40.1625 68.5563 41.2582C68.8033 42.3432 68.9269 43.5893 68.9269 44.9965ZM64.2701 49.6694V44.3681C64.2701 43.5195 64.2218 42.7783 64.1251 42.1445C64.0392 41.5107 63.9049 40.9736 63.7223 40.5331C63.5397 40.082 63.3141 39.7167 63.0455 39.4374C62.777 39.1581 62.4708 38.954 62.1271 38.8251C61.7833 38.6962 61.402 38.6318 60.983 38.6318C60.4567 38.6318 59.9894 38.7338 59.5812 38.9379C59.1837 39.142 58.8453 39.4697 58.566 39.9208C58.2867 40.3613 58.0719 40.9521 57.9215 41.6933C57.7819 42.4238 57.712 43.3154 57.712 44.3681V49.6694C57.712 50.518 57.755 51.2646 57.8409 51.9091C57.9376 52.5536 58.0773 53.1069 58.2599 53.5688C58.4532 54.02 58.6788 54.3906 58.9366 54.6806C59.2052 54.9599 59.5114 55.164 59.8551 55.2929C60.2096 55.4218 60.5963 55.4863 61.0153 55.4863C61.5309 55.4863 61.9874 55.3842 62.3849 55.1801C62.7931 54.9653 63.1368 54.6323 63.4161 54.1811C63.7062 53.7192 63.921 53.1176 64.0607 52.3764C64.2003 51.6352 64.2701 50.7328 64.2701 49.6694Z" fill="#F15830"/>
</svg>
