<svg xmlns="http://www.w3.org/2000/svg" viewBox="0 0 742.71 1024"><defs><style>.cls-1{fill:currentColor;}</style></defs><g id="Layer_2" data-name="Layer 2"><g id="Layer_1-2" data-name="Layer 1"><path id="File" class="cls-1" d="M63.58,1024A63.56,63.56,0,0,1,0,960.6V258.43a7,7,0,0,1,.09-1.62l.33-1.14v-.33a34.76,34.76,0,0,1,1.28-3.5l.36-.72a21.71,21.71,0,0,1,1.8-2.59,7.89,7.89,0,0,0,1.2-1.25l240-242.7a13.18,13.18,0,0,1,3.11-2.33l1.23-.62.15-.08A11.88,11.88,0,0,1,253,.31,27,27,0,0,1,256.35,0H679.14a64.2,64.2,0,0,1,46.35,19.93,62.07,62.07,0,0,1,17.22,43.22V960.6a63.56,63.56,0,0,1-63.57,63.4ZM51.25,272.87V960.81a12.73,12.73,0,0,0,12.53,12.9H679.35c6.79,0,12.53-6,12.53-13.11V63.19a12.93,12.93,0,0,0-11.72-12.88l-.3,0H271.1Zm244,51.54c13,0,23.57-11.52,23.57-25.68V50.28H271.7V273.06H51.25v51.35ZM549.37,466.13a25.14,25.14,0,1,0,0-50.28H193.76a25.14,25.14,0,1,0,0,50.28Zm0,123.51a25.14,25.14,0,1,0,0-50.28H193.76a25.14,25.14,0,1,0,0,50.28Zm0,123.3a25.14,25.14,0,1,0,0-50.28H193.76a25.14,25.14,0,1,0,0,50.28Zm-169.9,123.3c14.18,0,25.72-11.28,25.72-25.14A25.36,25.36,0,0,0,379.67,786H193.76a25.14,25.14,0,1,0,0,50.28Z"/></g></g></svg>