<svg xmlns="http://www.w3.org/2000/svg" viewBox="0 0 972.6 1024"><defs><style>.cls-1{fill:currentColor;}</style></defs><g id="Layer_2" data-name="Layer 2"><g id="Layer_1-2" data-name="Layer 1"><path id="Gallery" class="cls-1" d="M262,1024c-44.47,0-80.64-38.13-80.64-85V895.18H232.4V939c0,17.1,13.26,31,29.56,31h630c16.3,0,29.56-13.91,29.56-31V275.85c0-17.11-13.26-31-29.56-31H791.28V748.17c0,46.86-36.18,85-80.65,85h-630C36.18,833.16,0,795,0,748.17V85C0,38.13,36.18,0,80.65,0H710.49C755,0,791.14,38.14,791.14,85V190.85H891.81c44.41,0,80.65,38.13,80.79,85V939c0,46.87-36.18,85-80.65,85ZM170.4,318.93a29,29,0,0,0-21,8.89L51.09,431.37V748c0,17.11,13.26,31,29.56,31H710.48c15.67,0,28.54-12.86,29.51-29h.33V683.11L506.54,437a29.2,29.2,0,0,0-21-8.78,28.88,28.88,0,0,0-20.9,8.78l-48.56,51.12,59.51,62.65-36.22,38.12-248-261.09A29,29,0,0,0,170.4,318.93Zm315,54.93c21.48,0,41.71,8.84,57,24.9l194.9,205.16,3-.22V85c0-17.1-13.26-31-29.56-31h-630c-16.3,0-29.56,13.91-29.56,31V355.13l62.29-65.57a77.66,77.66,0,0,1,57-24.9c21.48,0,41.7,8.84,56.95,24.9L379.72,450l48.71-51.27A77.63,77.63,0,0,1,485.38,373.86Z"/></g></g></svg>