<svg xmlns="http://www.w3.org/2000/svg" viewBox="0 0 1024 1024"><defs><style>.cls-1{fill:currentColor;}</style></defs><g id="Layer_2" data-name="Layer 2"><g id="Layer_1-2" data-name="Layer 1"><path id="Home" class="cls-1" d="M512,48.61a130.1,130.1,0,0,1,80.82,28.25h.31L926.34,341.48a127.12,127.12,0,0,1,48.53,100.11V893.21a80.93,80.93,0,0,1-24,57.57A81.85,81.85,0,0,1,893,974.63H750.17a82,82,0,0,1-58-23.85,80.61,80.61,0,0,1-24-57.42V751.63A154.86,154.86,0,0,0,590.06,617.5a156.81,156.81,0,0,0-156.12,0,155,155,0,0,0-78.07,134.13V893.36a80.72,80.72,0,0,1-24,57.58,82,82,0,0,1-58,23.84H131a82.23,82.23,0,0,1-58-23.84,80.64,80.64,0,0,1-24-57.43V442.2a127,127,0,0,1,12.71-55.6A130.56,130.56,0,0,1,97.5,341.94L431,77h.31A128.2,128.2,0,0,1,512,48.61ZM512,0A178.48,178.48,0,0,0,400.42,39.19L67,303.81A175.94,175.94,0,0,0,0,442.2V894a129.33,129.33,0,0,0,38.42,91.9A131.66,131.66,0,0,0,131,1024H273.83a131.31,131.31,0,0,0,92.61-38.13A129.66,129.66,0,0,0,404.85,894V752.24a107.15,107.15,0,0,1,214.29,0V894a129.33,129.33,0,0,0,38.42,91.9A131.66,131.66,0,0,0,750.17,1024H893a131.28,131.28,0,0,0,92.6-38.13A129.67,129.67,0,0,0,1024,894V442.2a175.49,175.49,0,0,0-67-138.39L623.58,39A179.23,179.23,0,0,0,512,0Z"/></g></g></svg>