<svg width="38" height="38" viewBox="0 0 38 38" fill="none" xmlns="http://www.w3.org/2000/svg">
<path d="M19 38C29.4934 38 38 29.4934 38 19C38 8.50659 29.4934 0 19 0C8.50659 0 0 8.50659 0 19C0 29.4934 8.50659 38 19 38Z" fill="url(#paint0_linear_20_4657)"/>
<path d="M24.5664 12.3203C24.5664 9.251 22.0693 6.75391 19 6.75391C15.9307 6.75391 13.4336 9.251 13.4336 12.3203C13.4336 15.3896 15.9307 17.8867 19 17.8867C22.0693 17.8867 24.5664 15.3896 24.5664 12.3203ZM19 17.8867C13.4752 17.8867 8.98047 22.3815 8.98047 27.9062V28.9496C8.98047 29.2661 9.1151 29.5676 9.35082 29.7787C12.0626 32.2086 15.4895 33.5469 19 33.5469C22.5106 33.5469 25.9375 32.2086 28.6492 29.7787C28.8849 29.5676 29.0195 29.266 29.0195 28.9496V27.9062C29.0195 22.3815 24.5248 17.8867 19 17.8867Z" fill="url(#paint1_linear_20_4657)"/>
<defs>
<linearGradient id="paint0_linear_20_4657" x1="9.5" y1="31.825" x2="51.3" y2="-20.9" gradientUnits="userSpaceOnUse">
<stop stop-color="#134984"/>
<stop offset="1" stop-color="#F36F21"/>
</linearGradient>
<linearGradient id="paint1_linear_20_4657" x1="19" y1="33.5469" x2="19" y2="6.75391" gradientUnits="userSpaceOnUse">
<stop stop-color="#ADDCFF"/>
<stop offset="0.5028" stop-color="#EAF6FF"/>
<stop offset="1" stop-color="#EAF6FF"/>
</linearGradient>
</defs>
</svg>
