<?xml version="1.0" standalone="no"?>
<!DOCTYPE svg PUBLIC "-//W3C//DTD SVG 20010904//EN"
 "http://www.w3.org/TR/2001/REC-SVG-20010904/DTD/svg10.dtd">
<svg version="1.0" xmlns="http://www.w3.org/2000/svg"
 width="128.000000pt" height="121.000000pt" viewBox="0 0 128.000000 121.000000"
 preserveAspectRatio="xMidYMid meet">
<metadata>
Created by potrace 1.10, written by Peter Selinger 2001-2011
</metadata>
<g transform="translate(0.000000,121.000000) scale(0.100000,-0.100000)"
fill="#000000" stroke="none">
<path d="M48 1064 c-18 -9 -31 -28 -37 -52 -14 -52 -14 -791 0 -832 20 -55 44
-60 288 -60 239 0 262 4 283 52 l13 28 313 0 c185 0 321 4 332 10 30 16 40 66
40 200 0 142 -11 187 -47 201 -13 5 -196 9 -409 9 l-384 0 0 34 c0 38 -35 95
-70 114 -15 8 -48 11 -83 9 -49 -3 -63 -8 -89 -34 -26 -26 -32 -42 -36 -87
l-4 -56 -62 0 -61 0 3 202 c2 169 5 205 19 220 15 16 38 18 243 18 206 0 228
-2 243 -18 14 -15 17 -48 19 -188 3 -142 5 -169 18 -169 13 0 15 26 18 165 4
258 13 250 -300 250 -177 -1 -229 -4 -250 -16z m327 -349 c18 -18 25 -35 25
-65 0 -22 -4 -40 -10 -40 -5 0 -19 -9 -30 -20 -18 -18 -20 -33 -20 -152 l0
-132 -41 -42 c-23 -23 -38 -47 -35 -53 5 -7 58 -11 153 -11 145 0 146 0 128
-20 -17 -19 -31 -20 -245 -20 -205 0 -228 2 -243 18 -13 14 -17 49 -19 200
l-3 181 130 3 c114 3 130 5 133 21 3 14 -4 17 -47 17 l-51 0 0 45 c0 66 31 95
100 95 41 0 56 -5 75 -25z m849 -141 c14 -5 16 -29 16 -165 0 -87 -1 -160 -2
-161 -6 -5 -908 -12 -908 -7 0 3 11 16 25 29 24 23 25 28 25 155 0 88 4 135
12 143 9 9 115 12 414 12 221 0 409 -3 418 -6z"/>
<path d="M105 449 c-14 -22 14 -30 101 -27 71 2 89 6 89 18 0 12 -18 16 -92
18 -60 2 -94 -1 -98 -9z"/>
<path d="M105 369 c-14 -22 14 -30 101 -27 71 2 89 6 89 18 0 12 -18 16 -92
18 -60 2 -94 -1 -98 -9z"/>
<path d="M105 290 c-13 -21 12 -31 71 -28 44 2 59 7 59 18 0 19 -119 28 -130
10z"/>
<path d="M462 413 l3 -98 45 0 c33 0 45 4 45 15 0 9 -11 16 -27 18 -28 3 -28
4 -28 83 0 73 -2 79 -20 79 -20 0 -21 -5 -18 -97z"/>
<path d="M590 410 l0 -100 50 0 c43 0 50 3 50 20 0 16 -7 20 -34 20 -29 0 -34
4 -33 20 1 11 6 20 12 21 5 1 19 2 30 3 11 0 21 9 23 19 3 14 -4 17 -32 17
-32 0 -35 3 -32 23 2 17 10 22 32 22 19 0 30 6 32 18 3 14 -4 17 -47 17 l-51
0 0 -100z"/>
<path d="M774 463 c-9 -27 -25 -68 -35 -92 -11 -24 -16 -47 -13 -52 10 -16 32
-9 37 11 4 16 14 20 46 20 29 0 41 -4 41 -14 0 -20 19 -31 32 -18 6 6 -1 40
-23 101 -39 108 -58 117 -85 44z m51 -50 c5 -19 2 -23 -14 -23 -23 0 -24 3
-15 38 7 26 18 20 29 -15z"/>
<path d="M886 502 c-3 -5 10 -48 27 -97 44 -122 56 -122 96 -4 17 50 28 96 25
100 -15 24 -33 3 -50 -56 -10 -35 -21 -61 -24 -57 -4 4 -14 33 -24 65 -16 52
-36 72 -50 49z"/>
<path d="M1070 410 l0 -100 50 0 c43 0 50 3 50 20 0 16 -7 20 -34 20 -29 0
-34 4 -33 20 1 11 6 20 12 21 5 1 19 2 30 3 11 0 21 9 23 19 3 14 -4 17 -32
17 -32 0 -35 3 -32 23 3 16 9 21 26 19 25 -3 53 15 44 29 -3 5 -27 9 -55 9
l-49 0 0 -100z"/>
<path d="M232 948 c-14 -14 -16 -67 -3 -101 5 -13 23 -30 40 -37 60 -24 111
19 111 93 0 46 -16 57 -80 57 -31 0 -61 -5 -68 -12z m106 -59 c-4 -39 -30 -59
-55 -43 -10 6 -19 25 -21 43 -3 30 -2 31 38 31 40 0 41 -1 38 -31z"/>
</g>
</svg>
