<svg width="228" height="48" viewBox="0 0 228 48" fill="none" xmlns="http://www.w3.org/2000/svg">
<path d="M122.977 35.8322H118.52L118.585 33.5555C117.961 34.5591 117.213 35.2905 116.331 35.7607C115.454 36.2308 114.387 36.4618 113.13 36.4618C111.03 36.4618 109.339 35.6782 108.049 34.1192C106.765 32.5602 106.119 30.498 106.119 27.9354C106.119 25.3729 106.754 23.1677 108.016 21.6692C109.284 20.1762 111.041 19.4256 113.29 19.4256C114.442 19.4256 115.457 19.6895 116.325 20.2119C117.197 20.7399 118.016 21.573 118.778 22.714C118.728 22.3264 118.684 21.9029 118.657 21.4355C118.629 20.9681 118.618 20.4319 118.618 19.827V10.8085H122.977V35.8322ZM118.778 27.8859C118.778 26.4644 118.421 25.3399 117.703 24.5122C116.991 23.6791 116.023 23.2667 114.81 23.2667C113.598 23.2667 112.578 23.6736 111.863 24.4848C111.145 25.3014 110.788 26.4259 110.788 27.853C110.788 29.28 111.14 30.41 111.846 31.2157C112.55 32.0268 113.526 32.4282 114.777 32.4282C116.028 32.4282 117.032 32.0323 117.73 31.2322C118.432 30.432 118.778 29.3212 118.778 27.8859ZM103.62 29.049H91.7224C91.9038 30.1901 92.3163 31.0424 92.9679 31.6061C93.6113 32.1725 94.4884 32.4557 95.5965 32.4557C96.4351 32.4557 97.161 32.2962 97.7686 31.9718C98.3735 31.6528 98.8877 31.1607 99.2946 30.5063L103.009 32.3567C102.149 33.7507 101.101 34.7818 99.8803 35.4527C98.6512 36.1264 97.1912 36.4618 95.5057 36.4618C92.9432 36.4618 90.914 35.6974 89.4155 34.1687C87.9225 32.6427 87.1718 30.586 87.1718 28.0014C87.1718 25.4168 87.9555 23.4702 89.52 21.8672C91.0845 20.2642 93.0916 19.4586 95.536 19.4586C97.9803 19.4586 100.045 20.2092 101.511 21.7132C102.971 23.2117 103.705 25.2629 103.705 27.853C103.705 27.9959 103.699 28.1444 103.688 28.3149C103.677 28.4799 103.655 28.7218 103.622 29.049H103.62ZM99.0664 26.272C98.9399 25.2739 98.577 24.5205 97.9748 24.0063C97.3809 23.4922 96.5643 23.2392 95.5277 23.2392C94.4912 23.2392 93.6718 23.4922 93.0531 24.0063C92.4317 24.5177 92.0386 25.2739 91.8626 26.272H99.0637H99.0664ZM57.1357 35.8322L60.7349 12.197H66.0305L70.581 26.1125C70.68 26.4039 70.7845 26.8274 70.8945 27.391C71.01 27.9464 71.1145 28.5926 71.2079 29.3102C71.2959 28.5816 71.3949 27.9272 71.4994 27.347C71.6094 26.7751 71.7084 26.3489 71.8073 26.0795L76.4403 12.197H81.6535L85.2692 35.8322H80.4739L78.75 21.5757C78.618 20.5226 78.53 19.7225 78.4915 19.1891C78.4475 18.6502 78.4255 18.147 78.4255 17.6851C78.4255 17.4376 78.4255 17.2507 78.431 17.1269C78.4365 17.006 78.4475 16.896 78.4585 16.797C78.2935 17.7236 78.1451 18.521 77.9966 19.1946C77.8536 19.8682 77.7216 20.3742 77.6061 20.7206L72.5965 35.8322H69.7589L64.8317 20.7206C64.7932 20.5776 64.6942 20.1927 64.5513 19.5575C64.4083 18.9252 64.2048 17.9986 63.9436 16.7805V17.4734C63.9436 18.5705 63.8501 19.915 63.6522 21.507L63.6412 21.573L61.9282 35.8294H57.133L57.1357 35.8322Z" fill="#F36F21"/>
<path d="M227.941 35.8322H223.484L223.55 33.5555C222.926 34.5591 222.178 35.2905 221.295 35.7607C220.418 36.2308 219.351 36.4618 218.095 36.4618C215.994 36.4618 214.303 35.6782 213.013 34.1192C211.729 32.5602 211.086 30.498 211.086 27.9354C211.086 25.3729 211.718 23.1677 212.98 21.6692C214.248 20.1762 216.005 19.4256 218.254 19.4256C219.406 19.4256 220.421 19.6895 221.29 20.2119C222.161 20.7399 222.981 21.573 223.742 22.714C223.693 22.3264 223.649 21.9029 223.621 21.4355C223.594 20.9681 223.583 20.4319 223.583 19.827V10.8085H227.941V35.8322ZM223.742 27.8859C223.742 26.4644 223.385 25.3399 222.667 24.5122C221.955 23.6791 220.987 23.2667 219.775 23.2667C218.562 23.2667 217.542 23.6736 216.827 24.4848C216.109 25.3014 215.752 26.4259 215.752 27.853C215.752 29.28 216.104 30.41 216.811 31.2157C217.514 32.0268 218.491 32.4282 219.742 32.4282C220.993 32.4282 221.996 32.0323 222.695 31.2322C223.396 30.432 223.742 29.3212 223.742 27.8859ZM208.581 29.049H196.684C196.865 30.1901 197.28 31.0424 197.929 31.6061C198.573 32.1725 199.45 32.4557 200.558 32.4557C201.397 32.4557 202.122 32.2962 202.73 31.9718C203.335 31.6528 203.849 31.1607 204.256 30.5063L207.971 32.3567C207.11 33.7507 206.063 34.7818 204.842 35.4527C203.613 36.1264 202.153 36.4618 200.467 36.4618C197.905 36.4618 195.878 35.6974 194.377 34.1687C192.884 32.6427 192.133 30.586 192.133 28.0014C192.133 25.4168 192.917 23.4702 194.481 21.8672C196.046 20.2642 198.053 19.4586 200.497 19.4586C202.942 19.4586 205.007 20.2092 206.472 21.7132C207.932 23.2117 208.666 25.2629 208.666 27.853C208.666 27.9959 208.661 28.1444 208.65 28.3149C208.639 28.4799 208.617 28.7218 208.584 29.049H208.581ZM204.028 26.272C203.901 25.2739 203.538 24.5205 202.936 24.0063C202.34 23.4922 201.526 23.2392 200.489 23.2392C199.453 23.2392 198.633 23.4922 198.015 24.0063C197.393 24.5177 197 25.2739 196.824 26.272H204.025H204.028ZM183.464 35.8322V23.5911H181.253V19.992H183.464V14.7293H188.067V19.992H190.277V23.5911H188.067V35.8322H183.464ZM173.645 35.8322V19.9947H178.229V35.8322H173.645ZM173.238 13.492C173.238 12.7579 173.502 12.1255 174.033 11.6031C174.558 11.0752 175.191 10.8085 175.925 10.8085C176.659 10.8085 177.302 11.0669 177.836 11.5921C178.369 12.1145 178.636 12.7497 178.636 13.492C178.636 14.2344 178.372 14.8696 177.836 15.392C177.299 15.9199 176.662 16.1866 175.925 16.1866C175.188 16.1866 174.558 15.9171 174.033 15.3782C173.505 14.8421 173.238 14.2097 173.238 13.492ZM153.032 35.8322V19.9947H157.533V22.4803C158.366 21.4492 159.251 20.6849 160.205 20.1927C161.16 19.7033 162.215 19.4613 163.378 19.4613C164.608 19.4613 165.639 19.6703 166.469 20.0827C167.302 20.4951 167.962 21.1303 168.446 21.9772C168.682 22.4171 168.853 22.9203 168.952 23.4702C169.056 24.0283 169.106 24.8972 169.106 26.0767V35.8322H164.503V28.0014C164.503 26.0547 164.278 24.768 163.824 24.1438C163.373 23.5224 162.595 23.2062 161.498 23.2062C160.865 23.2062 160.28 23.3382 159.746 23.6021C159.218 23.8661 158.77 24.2345 158.418 24.7212C158.138 25.1007 157.934 25.5323 157.813 26.0163C157.687 26.5002 157.626 27.2343 157.626 28.2269V35.8322H153.026H153.032ZM148.204 12.197V26.8989C148.204 30.1048 147.362 32.5024 145.669 34.0834C143.978 35.6644 141.437 36.4591 138.03 36.4591C134.624 36.4591 132.009 35.6644 130.315 34.0834C128.624 32.5024 127.78 30.1048 127.78 26.8989V12.197H132.801V26.1125C132.801 28.0564 133.23 29.5247 134.09 30.509C134.956 31.4961 136.24 31.9855 137.953 31.9855C139.666 31.9855 140.978 31.4906 141.86 30.5035C142.743 29.5109 143.183 28.0454 143.183 26.1125V12.197H148.204Z" fill="#134984"/>
<path fill-rule="evenodd" clip-rule="evenodd" d="M31.1167 9.43924H37.8284V18.906H28.3616V12.1943C28.3616 10.6793 29.6017 9.43924 31.1167 9.43924Z" fill="#134984"/>
<path fill-rule="evenodd" clip-rule="evenodd" d="M44.5373 18.9087H37.8256V28.3754H47.2923V21.6637C47.2923 20.1487 46.0523 18.9087 44.5373 18.9087Z" fill="#134984"/>
<path fill-rule="evenodd" clip-rule="evenodd" d="M2.75505 28.3754H9.46671V18.9087H0V25.6204C0 27.1354 1.24005 28.3782 2.75505 28.3782" fill="#134984"/>
<path fill-rule="evenodd" clip-rule="evenodd" d="M16.1784 37.8421H9.46671V28.3754H18.9334V35.0871C18.9334 36.6021 17.6934 37.8421 16.1784 37.8421Z" fill="#134984"/>
<path fill-rule="evenodd" clip-rule="evenodd" d="M21.65 0H28.3616V9.46671H18.8949V2.7578C18.8949 1.2428 20.135 0 21.65 0Z" fill="#134984"/>
<path fill-rule="evenodd" clip-rule="evenodd" d="M12.1833 18.9334H18.8949V9.46671H9.42547V16.1784C9.42547 17.6934 10.6655 18.9334 12.1805 18.9334" fill="#134984"/>
<path fill-rule="evenodd" clip-rule="evenodd" d="M25.6176 47.2703H18.9059V37.8036H28.3726V44.5153C28.3726 46.0303 27.1326 47.2731 25.6176 47.2731" fill="#134984"/>
<path fill-rule="evenodd" clip-rule="evenodd" d="M35.0843 28.3341H28.3726V37.8009H37.8394V31.0892C37.8394 29.5714 36.5993 28.3314 35.0843 28.3314" fill="#134984"/>
</svg>
