<svg xmlns="http://www.w3.org/2000/svg" viewBox="0 0 972.37 1024"><defs><style>.cls-1{fill:currentColor;}</style></defs><g id="Layer_2" data-name="Layer 2"><g id="Layer_1-2" data-name="Layer 1"><path id="Logout" class="cls-1" d="M584.26,1024H26.14A26.14,26.14,0,0,1,0,997.86V26.14A26.14,26.14,0,0,1,26.14,0H584.26A26.14,26.14,0,0,1,610.4,26.14V307.25a26.14,26.14,0,0,1-52.28,0v-255H52.28V971.72H558.12V716.81a26.14,26.14,0,0,1,52.28,0V997.86A26.14,26.14,0,0,1,584.26,1024ZM757.58,737.61,964.71,530.48a26.13,26.13,0,0,0,0-37L756.61,285.42a26.13,26.13,0,1,0-37,37L909.26,512,720.61,700.65a26.14,26.14,0,1,0,37,37ZM972.37,512.42a26.15,26.15,0,0,0-26.14-26.14H258.39a26.14,26.14,0,0,0,0,52.28H946.23A26.14,26.14,0,0,0,972.37,512.42Z"/></g></g></svg>