<svg xmlns="http://www.w3.org/2000/svg" viewBox="0 0 918.78 1024"><defs><style>.cls-1{fill:currentColor;fill-rule:evenodd;}</style></defs><g id="Layer_2" data-name="Layer 2"><g id="Layer_1-2" data-name="Layer 1"><path id="Privacy" class="cls-1" d="M380.49,685.81c-57.5,0-104.28-44.25-104.28-98.65V512c0-41.64,27.85-79,69.32-93l9.59-3.23V361.7c0-54.4,46.78-98.65,104.28-98.65S563.68,307.3,563.68,361.7v54.11l9.6,3.23c41.46,14,69.32,51.32,69.32,93v75.16c0,54.4-46.78,98.65-104.29,98.65Zm0-225.47C351,460.34,327,483.52,327,512v75.16c0,28.49,24,51.67,53.54,51.67H538.31c29.53,0,53.55-23.18,53.55-51.67V512c0-28.48-24-51.66-53.55-51.66ZM459.4,310c-29.52,0-53.54,23.18-53.54,51.67v51.66H513V361.7C513,333.21,488.93,310,459.4,310Zm0,714a27,27,0,0,1-12.4-3L177.47,881C68,824.13,0,715.15,0,596.58V136.23c0-10.49,7.62-19.79,18.52-22.62L452.55.87a27.32,27.32,0,0,1,13.68,0l434,112.74c10.91,2.83,18.53,12.13,18.53,22.62V596.58c0,118.56-68,227.54-177.47,284.41L471.79,1021A27,27,0,0,1,459.39,1024ZM50.75,154V596.58c0,101.6,58.07,194.88,151.53,243.42L459.4,973.57,716.52,840C810,791.44,868.05,698.17,868.05,596.58V154L459.4,47.89Z"/></g></g></svg>