<svg xmlns="http://www.w3.org/2000/svg" viewBox="0 0 877.23 1024"><defs><style>.cls-1{fill:currentColor;}</style></defs><g id="Layer_2" data-name="Layer 2"><g id="Layer_1-2" data-name="Layer 1"><path id="Profile" class="cls-1" d="M694.42,635.28c73.16,0,132.68,59.56,132.68,132.76v73.2c0,73.2-59.52,132.76-132.68,132.76H182.65C109.5,974,50,914.44,50,841.24V768c0-73.2,59.53-132.76,132.68-132.76Zm0-50.16H182.65C81.93,585.12,0,667.1,0,768v73.2C0,942,81.93,1024,182.65,1024H694.42c100.72,0,182.81-82,182.81-182.92v-73.2C877.23,667.1,795.14,585.12,694.42,585.12Zm-255.81-535C552,50.16,644.29,142.48,644.29,256S552,461.76,438.61,461.76,232.94,369.44,232.94,256C232.78,142.48,325,50.16,438.61,50.16Zm0-50.16c-141,0-255.8,114.89-255.8,256,0,141.23,114.82,256,255.8,256S694.42,397,694.42,256C694.42,114.74,579.6,0,438.61,0Z"/></g></g></svg>