<svg xmlns="http://www.w3.org/2000/svg" viewBox="0 0 816.81 1024"><defs><style>.cls-1{fill:currentColor;}</style></defs><g id="Layer_2" data-name="Layer 2"><g id="Layer_1-2" data-name="Layer 1"><path id="Receipts" class="cls-1" d="M581.67,192.2a44.39,44.39,0,0,1,32.06,13.7A47.56,47.56,0,0,1,627.05,239V951.22l-63.34-61a22.22,22.22,0,0,0-30.67,0l-89.51,83.34-89.35-83.18a22.13,22.13,0,0,0-15.34-6.15,22.39,22.39,0,0,0-15.33,6.15l-89.35,83.18L144.8,890.41a22.18,22.18,0,0,0-30.66,0l-64.58,61V239A47.27,47.27,0,0,1,62.88,205.9a44.35,44.35,0,0,1,32.05-13.7Zm0-50.42H94.93a94.43,94.43,0,0,0-67.36,28.83A97.57,97.57,0,0,0,0,239V951.22a50.36,50.36,0,0,0,29.73,46.16,49,49,0,0,0,53.59-9.14l46.3-43.64,71.09,66.17a48.9,48.9,0,0,0,66.9,0l71.23-66.33,71.24,66.33a48.9,48.9,0,0,0,66.9,0l70.93-66,44.91,43.17a49.48,49.48,0,0,0,34.07,13.7,49.65,49.65,0,0,0,49.56-50.41V239A98.42,98.42,0,0,0,649,170.46C631.23,152.34,606.76,141.78,581.67,141.78Zm94.78,579.79-.77-487.31a96,96,0,0,0-26.49-66.32,88.72,88.72,0,0,0-64.11-27.42H188.78V97.2A47.25,47.25,0,0,1,202.1,64.12a44.4,44.4,0,0,1,32.06-13.71H720.9A44.63,44.63,0,0,1,753,64.12,47.54,47.54,0,0,1,766.27,97.2l1.09,711.13M720.9,0H234.16a94.45,94.45,0,0,0-67.37,28.83A97.53,97.53,0,0,0,139.22,97.2v93.74H584.93a39.14,39.14,0,0,1,28.64,12.44,44.29,44.29,0,0,1,12.24,30.88l1.74,585.58,48.9-28.35,92.2,87c19.15,18.07,48.2,2.59,48.16-25.67L815.67,97a97.79,97.79,0,0,0-27.41-68.37A94.94,94.94,0,0,0,720.9,0ZM342.72,408.34h-145a25.21,25.21,0,0,1,0-50.41h145a25.21,25.21,0,0,1,0,50.41ZM478.53,560.68H197.92a25.21,25.21,0,0,1,0-50.41H478.69a25.21,25.21,0,0,1-.16,50.41Zm0,152.18H197.92a25.21,25.21,0,0,1,0-50.41H478.69a25.21,25.21,0,0,1-.16,50.41Z"/></g></g></svg>