<svg width="27" height="24" viewBox="0 0 27 24" fill="none" xmlns="http://www.w3.org/2000/svg">
<path d="M7.27279 2.52357C9.41287 0.900517 12.0466 0.012986 14.7615 0C18.0208 0.0183569 21.1395 1.29187 23.4337 3.54122C25.728 5.79074 27.0103 8.83255 26.9993 11.9994L26.9993 12.0012C27.0279 14.5408 26.2174 17.0223 24.6867 19.0811C23.156 21.1398 20.986 22.6673 18.4955 23.4389C16.005 24.2106 13.3254 24.1857 10.8505 23.368C8.37567 22.5502 6.23612 20.9827 4.74622 18.8959L4.74359 18.8925C4.66324 18.7877 4.60538 18.6682 4.57346 18.5412C4.54154 18.4142 4.5362 18.2823 4.55777 18.1533C4.57934 18.0243 4.62737 17.9008 4.69901 17.7902C4.77065 17.6795 4.86445 17.584 4.97482 17.5093C5.0852 17.4345 5.20991 17.3821 5.34154 17.3551C5.47318 17.3281 5.60906 17.327 5.74111 17.352C5.87316 17.377 5.9987 17.4276 6.11027 17.5006C6.22184 17.5737 6.31711 17.6678 6.39053 17.7773L6.39273 17.7804C7.33094 19.0937 8.5817 20.1676 10.0387 20.9106C11.4956 21.6537 13.1162 22.0439 14.7617 22.0483C16.6812 22.0462 18.5614 21.5201 20.1879 20.5298C21.8144 19.5395 23.1217 18.125 23.9605 16.4476C24.7994 14.7702 25.136 12.8975 24.9321 11.0432C24.7281 9.18887 23.9918 7.42757 22.8071 5.96025C21.6224 4.49294 20.0371 3.37869 18.2319 2.74465C16.4268 2.11061 14.4746 1.9823 12.598 2.37436C10.7214 2.76642 8.99601 3.66307 7.61871 4.962C6.2414 6.26094 5.26763 7.90984 4.8085 9.72059L4.72759 10.0397L6.71126 8.74038L6.71465 8.738C6.82388 8.6614 6.94786 8.60692 7.0792 8.57782C7.21054 8.54873 7.34657 8.5456 7.47918 8.56863C7.6118 8.59166 7.73828 8.64038 7.85112 8.71188C7.96395 8.78339 8.06082 8.87622 8.13597 8.98485C8.21111 9.09347 8.263 9.21568 8.28853 9.34419C8.31406 9.4727 8.31271 9.60489 8.28458 9.73289C8.25644 9.86088 8.20209 9.98207 8.12475 10.0892C8.04741 10.1964 7.94863 10.2873 7.83436 10.3566L4.08712 12.8091C3.86275 12.95 3.5909 13.0007 3.32878 12.9508C3.07093 12.8914 2.84383 12.7435 2.68929 12.5343L0.194441 8.86085L0.191084 8.85635C0.111508 8.74966 0.0549945 8.62843 0.0249528 8.49995C-0.00508905 8.37147 -0.00803709 8.23841 0.0162864 8.1088C0.0406098 7.97918 0.0917009 7.8557 0.166479 7.74578C0.241256 7.63587 0.338171 7.54182 0.45138 7.46928C0.564588 7.39675 0.691744 7.34724 0.82518 7.32375C0.958616 7.30025 1.09557 7.30326 1.22777 7.33258C1.35998 7.36191 1.48471 7.41694 1.59443 7.49436C1.70415 7.57179 1.79648 7.67007 1.86608 7.78315L2.86227 9.24684L2.9351 8.96978C3.60696 6.4139 5.13253 4.14677 7.27279 2.52357Z" fill="#00458A"/>
<path d="M13.938 5.74273C14.1263 5.55975 14.3817 5.45695 14.6481 5.45695C14.9144 5.45695 15.1699 5.55975 15.3582 5.74273C15.5465 5.9257 15.6523 6.17387 15.6523 6.43264V11.5989L18.7685 14.6544C18.956 14.8381 19.0607 15.0867 19.0596 15.3454C19.0584 15.6038 18.9518 15.8512 18.7632 16.0334C18.572 16.2122 18.3166 16.3116 18.0512 16.3104C17.7857 16.3091 17.5307 16.2067 17.3414 16.0259L13.939 12.6906C13.7539 12.5047 13.6483 12.2574 13.6438 11.9988V6.43264C13.6438 6.17387 13.7496 5.9257 13.938 5.74273Z" fill="#00458A"/>
</svg>
