<svg width="70" height="71" viewBox="0 0 70 71" fill="none" xmlns="http://www.w3.org/2000/svg">
<g filter="url(#filter0_d_25_6347)">
<path d="M59.9991 29.8802C59.9991 16.0952 48.8241 4.92023 35.0392 4.92023C21.2542 4.92023 10.0792 16.0952 10.0792 29.8802C10.0792 43.6651 21.2542 54.8401 35.0392 54.8401C48.8241 54.8401 59.9991 43.6651 59.9991 29.8802Z" fill="#F36F21"/>
</g>
<path d="M41.9682 22.6107L24.8394 27.099C24.3777 27.2207 23.9613 27.4742 23.6414 27.8287C23.3214 28.1832 23.1116 28.6232 23.0377 29.095C22.9538 29.5514 23.0077 30.0225 23.1926 30.4481C23.3775 30.8738 23.685 31.2347 24.0759 31.4848L29.2384 34.7968C29.2639 34.8379 29.2932 34.8767 29.3257 34.9126C29.3512 34.9538 29.3804 34.9925 29.4129 35.0284L31.1716 40.9025C31.3043 41.3472 31.5664 41.7424 31.9245 42.0375C32.2827 42.3326 32.7206 42.5144 33.1825 42.5596C33.8069 42.641 34.4388 42.4789 34.9469 42.1068C35.2101 41.9083 35.4315 41.6598 35.5983 41.3755L44.6347 26.1498C44.8835 25.7425 45.004 25.2698 44.9808 24.793C44.9575 24.3163 44.7915 23.8576 44.5043 23.4764C44.2171 23.0952 43.8219 22.8091 43.3701 22.6553C42.9183 22.5015 42.4307 22.487 41.9705 22.6138L41.9682 22.6107ZM24.5171 29.3524C24.5525 29.1069 24.6832 28.8854 24.8809 28.7356C24.9832 28.6587 25.0999 28.6031 25.2241 28.5719L42.3698 24.0709L42.4581 24.0621L30.0022 33.4469L24.8915 30.1909C24.7513 30.1058 24.6402 29.98 24.5733 29.8301C24.5064 29.6803 24.4868 29.5136 24.5171 29.3524ZM34.2882 40.6022C34.1947 40.7648 34.0548 40.8958 33.8865 40.9786C33.7181 41.0613 33.5289 41.0919 33.343 41.0666C33.1791 41.0514 33.0237 40.9864 32.8977 40.8803C32.7718 40.7742 32.6814 40.6321 32.6385 40.4731L30.9182 34.6627L43.3757 25.2767L43.3367 25.3638L34.2882 40.6022Z" fill="white"/>
<defs>
<filter id="filter0_d_25_6347" x="0.0792236" y="0.920227" width="69.9199" height="69.9199" filterUnits="userSpaceOnUse" color-interpolation-filters="sRGB">
<feFlood flood-opacity="0" result="BackgroundImageFix"/>
<feColorMatrix in="SourceAlpha" type="matrix" values="0 0 0 0 0 0 0 0 0 0 0 0 0 0 0 0 0 0 127 0" result="hardAlpha"/>
<feOffset dy="6"/>
<feGaussianBlur stdDeviation="5"/>
<feColorMatrix type="matrix" values="0 0 0 0 1 0 0 0 0 0.513726 0 0 0 0 0.247059 0 0 0 0.302 0"/>
<feBlend mode="normal" in2="BackgroundImageFix" result="effect1_dropShadow_25_6347"/>
<feBlend mode="normal" in="SourceGraphic" in2="effect1_dropShadow_25_6347" result="shape"/>
</filter>
</defs>
</svg>
