<svg xmlns="http://www.w3.org/2000/svg" viewBox="0 0 1024 1024"><defs><style>.cls-1{fill:currentColor;}</style></defs><g id="Layer_2" data-name="Layer 2"><g id="Layer_1-2" data-name="Layer 1"><path id="Settings" class="cls-1" d="M998.4,486.57H468c-12.08-80.95-81.85-143-166.12-143s-154,62.09-166.13,143H28.24c-15.6,0-28.24,11.2-28.24,25s12.64,25,28.24,25H135.7c12.07,80.95,81.85,143,166.13,143s154-62.09,166.12-143H998.4c14.14,0,25.6-11.2,25.6-25S1012.54,486.57,998.4,486.57ZM385.24,595a118.06,118.06,0,1,1,34.55-83.45A117.16,117.16,0,0,1,385.24,595ZM25.32,186.68H554.78c9.08,84.48,80.56,150.26,167.41,150.26,84.51,0,154.46-62.27,166.54-143.45H996.05c15.44,0,28-11.2,28-25s-12.51-25-28-25H888.73C876.65,62.27,806.7,0,722.19,0c-82.12,0-150.5,58.82-165.37,136.64H25.32a25,25,0,1,0,0,50ZM638.49,84.73A118.4,118.4,0,0,1,805.9,252.21,118.4,118.4,0,0,1,638.49,84.73ZM996,830.51H888.74c-12.08-81.17-82-143.45-166.54-143.45-86.85,0-158.33,65.79-167.41,150.26H25.69C11.5,837.32,0,848.53,0,862.34s11.5,25,25.69,25H556.83C571.7,965.18,640.08,1024,722.2,1024c84.5,0,154.46-62.27,166.54-143.45H996c15.44,0,28-11.2,28-25S1011.48,830.51,996,830.51ZM805.9,939.27a118.44,118.44,0,1,1,34.68-83.74A117.54,117.54,0,0,1,805.9,939.27Z"/></g></g></svg>