<svg xmlns="http://www.w3.org/2000/svg" viewBox="0 0 866.02 1024"><defs><style>.cls-1{fill:currentColor;}</style></defs><g id="Layer_2" data-name="Layer 2"><g id="Layer_1-2" data-name="Layer 1"><path id="Share" class="cls-1" d="M709.48,1024c-41.52,0-80.72-16.76-110.38-47.18a162,162,0,0,1-46.16-113.75,160.31,160.31,0,0,1,8-49.16l3.57-11.27L262.35,630.58l-7.79,6.48c-28.16,23.46-62.06,35.86-98,35.86-41.52,0-80.72-16.76-110.39-47.18a163.25,163.25,0,0,1,0-227.49c29.67-30.43,68.87-47.18,110.39-47.18,35.63,0,69.53,12.54,98,36.28l7.79,6.48,301.71-172-3.56-11.25a164.26,164.26,0,0,1-7.55-49.6A162,162,0,0,1,599.1,47.18C628.77,16.76,668,0,709.48,0S790.2,16.76,819.86,47.18a163.22,163.22,0,0,1,0,227.48c-29.66,30.43-68.87,47.19-110.38,47.19-42.06,0-81.57-17-111.25-47.84l-7.89-8.21L294.23,434.93l5.25,12a162.45,162.45,0,0,1,0,130.11l-5.22,12L590.72,758.16l7.89-8.14c29.9-30.87,69.28-47.87,110.87-47.87s80.72,16.75,110.38,47.18a163.22,163.22,0,0,1,0,227.49C790.2,1007.24,751,1024,709.48,1024Zm0-270.06c-59.86,0-106.76,47.94-106.76,109.13S649.62,972.2,709.48,972.2s106.77-47.94,106.77-109.13S769.35,753.94,709.48,753.94ZM156.55,402.87C96.68,402.87,49.79,450.81,49.79,512S96.68,621.13,156.55,621.13,263.32,573.19,263.32,512,216.42,402.87,156.55,402.87ZM709.48,51.8c-59.86,0-106.76,47.93-106.76,109.13s46.9,109.13,106.76,109.13,106.77-47.94,106.77-109.13S769.35,51.8,709.48,51.8Z"/></g></g></svg>