<svg xmlns="http://www.w3.org/2000/svg" viewBox="0 0 689.63 1024"><defs><style>.cls-1{fill:currentColor;}</style></defs><g id="Layer_2" data-name="Layer 2"><g id="Layer_1-2" data-name="Layer 1"><path id="Sort" class="cls-1" d="M682.33,842.35l-174,174.31a25,25,0,0,1-17.2,7.33h-.88a24.45,24.45,0,0,1-14.33-4.78l-.4-.3-.4-.31a26.39,26.39,0,0,1-2.18-1.93L298.54,842.37A25,25,0,0,1,333.9,807L465.48,938.56V320.67c0-14.75,12.08-26.6,26.79-25.57A25,25,0,0,1,515.48,320V938.72L646.94,807.05a25,25,0,0,1,35.39,35.3ZM355.64,216.19a25,25,0,1,0,35.24-35.45L216.17,7.26a25,25,0,0,0-35.3.06L7.59,180.51c-9.71,9.71-10.27,25.58-.72,35.45a25,25,0,0,0,35.66.31l131-131V660.67a25,25,0,0,0,50,0V85Z"/></g></g></svg>