<svg xmlns="http://www.w3.org/2000/svg" viewBox="0 0 1024 1024"><defs><style>.cls-1{fill:currentColor;}</style></defs><g id="Layer_2" data-name="Layer 2"><g id="Layer_1-2" data-name="Layer 1"><g id="Star"><path class="cls-1" d="M511.84,50a16.55,16.55,0,0,1,14.39,7.92L660.58,270.8a116.35,116.35,0,0,0,71.73,51.34l228.61,54.67a16.91,16.91,0,0,1,10.05,26L817,626.14a117.12,117.12,0,0,0-20.24,76.19l21.1,249.48a16.11,16.11,0,0,1-4.28,12.75,17.14,17.14,0,0,1-12.51,5.67,17.51,17.51,0,0,1-5.56-1L549.85,887.22a117,117,0,0,0-75.93.61L231.86,973a16.7,16.7,0,0,1-18.26-4.58,16.1,16.1,0,0,1-4.35-12.62l18.66-253.7a117.29,117.29,0,0,0-20.29-74.84L53,402.64a16.9,16.9,0,0,1,10.06-26l228.24-54.47a116.4,116.4,0,0,0,71.79-51.36L497.45,57.92A16.54,16.54,0,0,1,511.84,50m0-50a66.46,66.46,0,0,0-56.68,31.24L320.83,244.1a67,67,0,0,1-41.11,29.4L51.48,328C5.73,338.9-14.81,392.28,11.84,431L166.43,655.58A66.85,66.85,0,0,1,178,698.4L159.38,952.1c-3,40.2,29.4,71.9,66.69,71.9a67.21,67.21,0,0,0,22.38-3.87L490.51,935a67,67,0,0,1,43.5-.34l245.68,82.06a67.64,67.64,0,0,0,21.4,3.52c37.62,0,70-32.23,66.61-72.63L846.6,698.12a66.93,66.93,0,0,1,11.58-43.6l154-223.29c26.69-38.71,6.17-92.11-39.58-103L743.94,273.51a67,67,0,0,1-41.08-29.4L568.52,31.24A66.47,66.47,0,0,0,511.84,0Z"/></g></g></g></svg>