<svg xmlns="http://www.w3.org/2000/svg" viewBox="0 0 768 1024"><defs><style>.cls-1{fill:currentColor;}</style></defs><g id="Layer_2" data-name="Layer 2"><g id="Layer_1-2" data-name="Layer 1"><path id="Terms" class="cls-1" d="M383.48,719.57a127.21,127.21,0,1,1-90,37.26,126.35,126.35,0,0,1,90-37.26m0-50A177.22,177.22,0,1,0,560.69,846.78,177.21,177.21,0,0,0,383.48,669.57Zm-9.43,241.52,79.24-79.25a25,25,0,1,0-35.36-35.35l-61.56,61.56-19.22-19.21a25,25,0,0,0-35.35,35.35l36.89,36.9a25,25,0,0,0,35.36,0Zm210.84-700a25,25,0,0,0-25-25H207.06a25,25,0,0,0,0,50H559.89A25,25,0,0,0,584.89,211.05Zm0,169.05a25,25,0,0,0-25-25H207.06a25,25,0,0,0,0,50H559.89A25,25,0,0,0,584.89,380.1Zm0,169a25,25,0,0,0-25-25H207.06a25,25,0,0,0,0,50H559.89A25,25,0,0,0,584.89,549.15ZM730,38A129.22,129.22,0,0,0,638.34,0H129.66A129.67,129.67,0,0,0,0,129.66V747.9A129.67,129.67,0,0,0,129.66,877.56h25.12a13,13,0,0,0,13-14.22q-.87-8.73-.88-17.69,0-2.32.06-4.65a13.06,13.06,0,0,0-13-13.44H129.66A79.76,79.76,0,0,1,50,747.9V129.66A79.76,79.76,0,0,1,129.66,50H638.34A79.76,79.76,0,0,1,718,129.66V747.9a79.76,79.76,0,0,1-79.66,79.66H614.29a13.06,13.06,0,0,0-13,13.44q.06,2.32.06,4.65,0,9-.88,17.69a13,13,0,0,0,13,14.22h24.91A129.67,129.67,0,0,0,768,747.9V129.66A129.22,129.22,0,0,0,730,38Z"/></g></g></svg>