<svg width="673" height="569" viewBox="0 0 673 569" fill="none" xmlns="http://www.w3.org/2000/svg">
<path d="M672.667 78.0399C672.667 35.2172 637.954 0.498535 595.126 0.498535C570.86 0.498535 549.214 11.6704 534.99 29.1185L534.974 29.1029L255.441 372.343L135.186 242.108L135.118 242.166C120.952 226.822 100.744 217.16 78.2064 217.16C35.3784 217.165 0.665039 251.879 0.665039 294.696C0.665039 314.994 8.52957 333.41 21.2957 347.232L21.228 347.29L202.148 543.21L202.216 543.152C216.382 558.491 236.59 568.158 259.128 568.158C283.404 568.158 305.04 556.986 319.264 539.538L319.285 539.553L655.285 126.98L655.264 126.964C666.139 113.615 672.67 96.5949 672.67 78.0429L672.667 78.0399Z" fill="currentColor"/>
</svg>
