<?xml version="1.0" encoding="UTF-8" standalone="no" ?>
<!DOCTYPE svg PUBLIC "-//W3C//DTD SVG 1.1//EN" "http://www.w3.org/Graphics/SVG/1.1/DTD/svg11.dtd">
<svg xmlns="http://www.w3.org/2000/svg" xmlns:xlink="http://www.w3.org/1999/xlink" version="1.1" width="1080" height="1080" viewBox="0 0 1080 1080" xml:space="preserve">
<desc>Created with Fabric.js 5.2.4</desc>
<defs>
</defs>
<g transform="matrix(1 0 0 1 540 540)" id="c556cc20-0beb-45bf-bfb4-7fce3f0f8a49"  >
<rect style="stroke: none; stroke-width: 1; stroke-dasharray: none; stroke-linecap: butt; stroke-dashoffset: 0; stroke-linejoin: miter; stroke-miterlimit: 4; fill: rgb(255,255,255); fill-rule: nonzero; opacity: 1; visibility: hidden;" vector-effect="non-scaling-stroke"  x="-540" y="-540" rx="0" ry="0" width="1080" height="1080" />
</g>
<g transform="matrix(1 0 0 1 540 540)" id="5f4bdd76-0518-4b54-828e-6813e51fc7a1"  >
</g>
<g transform="matrix(1 0 0 1 540 540)"  >
<path style="stroke: rgb(0,0,0); stroke-width: 0; stroke-dasharray: none; stroke-linecap: butt; stroke-dashoffset: 0; stroke-linejoin: miter; stroke-miterlimit: 4; fill: rgb(0,0,0); fill-rule: nonzero; opacity: 1;" vector-effect="non-scaling-stroke"  transform=" translate(-438.62, -511.98)" d="M 694.42 635.28 C 767.5799999999999 635.28 827.0999999999999 694.8399999999999 827.0999999999999 768.04 L 827.0999999999999 841.24 C 827.0999999999999 914.44 767.5799999999999 974 694.4199999999998 974 L 182.65 974 C 109.5 974 50 914.44 50 841.24 L 50 768 C 50 694.8 109.53 635.24 182.68 635.24 Z M 694.42 585.12 L 182.65 585.12 C 81.93 585.12 0 667.1 0 768 L 0 841.2 C 0 942 81.93 1024 182.65 1024 L 694.42 1024 C 795.14 1024 877.23 942 877.23 841.08 L 877.23 767.88 C 877.23 667.1 795.14 585.12 694.42 585.12 Z M 438.60999999999996 50.120000000000005 C 552 50.16 644.29 142.48 644.29 256 C 644.29 369.52 552 461.76 438.61 461.76 C 325.22 461.76 232.94 369.44 232.94 256 C 232.78 142.48 325 50.16 438.61 50.16 Z M 438.60999999999996 -0.03999999999999204 C 297.60999999999996 -0.03999999999999204 182.80999999999995 114.85000000000001 182.80999999999995 255.96 C 182.80999999999995 397.19 297.62999999999994 511.96000000000004 438.60999999999996 511.96000000000004 C 579.5899999999999 511.96000000000004 694.42 397 694.42 256 C 694.42 114.74 579.6 0 438.61 0 Z" stroke-linecap="round" />
</g>
<g transform="matrix(1 0 0 1 540 540)" style="" id="539c98a2-7634-48a8-8a0c-34efafd216bd"  >
		<text xml:space="preserve" font-family="Lato" font-size="40" font-style="normal" font-weight="400" style="stroke: none; stroke-width: 1; stroke-dasharray: none; stroke-linecap: butt; stroke-dashoffset: 0; stroke-linejoin: miter; stroke-miterlimit: 4; fill: rgb(0,0,0); fill-rule: nonzero; opacity: 1; white-space: pre;" ><tspan x="-11.6" y="12.57" >+</tspan></text>
</g>
<g transform="matrix(3.2 0 0 3.2 903.77 98.32)" style="" id="05104ae2-8424-4705-887b-3d446eb0b6bf"  >
		<text xml:space="preserve" font-family="Alegreya" font-size="150" font-style="normal" font-weight="700" style="stroke: none; stroke-width: 1; stroke-dasharray: none; stroke-linecap: butt; stroke-dashoffset: 0; stroke-linejoin: miter; stroke-miterlimit: 4; fill: rgb(0,0,0); fill-rule: nonzero; opacity: 1; white-space: pre;" ><tspan x="-37.95" y="47.12" >+</tspan></text>
</g>
</svg>