<?xml version="1.0" encoding="UTF-8"?>
<svg id="Capa_1" data-name="Capa 1" xmlns="http://www.w3.org/2000/svg" viewBox="0 0 512 512">
    <defs><style>.cls-1{fill:currentColor;}</style></defs>
  <path class="cls-1" d="M37.99,469.42h259.16c33.72,46.21,98.67,56.2,144.89,23.11,46.21-33.72,56.2-98.67,23.11-144.88-23.11-31.85-62.45-48.08-101.8-41.22-22.48-34.97-56.83-60.57-96.8-73.06,60.57-31.22,84.31-106.17,52.46-166.74C287.17,6.05,212.85-17.69,152.28,14.16c-60.57,31.85-83.68,106.17-52.46,166.74,11.86,22.48,29.98,40.59,52.46,52.46-74.32,23.11-124.9,91.81-124.9,169.24v55.58c0,6.24,5,11.24,10.62,11.24h0ZM360.86,329.53c43.71-11.24,88.05,15.62,99.3,59.33s-15.62,88.05-59.33,99.3c-51.21,12.49-101.17-26.85-101.17-79.93,0-37.47,24.98-69.95,61.2-78.69h0ZM107.94,124.69c0-56.2,44.97-101.8,101.17-101.8s101.8,44.97,101.8,101.17-44.97,101.8-101.8,101.8-101.17-45.58-101.17-101.17h0ZM49.22,402.6c0-85.56,69.32-154.88,155.5-155.51h10.62c49.96,0,97.42,24.36,126.77,65.57-37.47,15.62-63.7,53.08-63.7,95.55,0,12.49,2.5,26.23,7.49,39.34H49.22v-44.97h0Z"/>
  <path class="cls-1" d="M338.99,419.46h31.22v31.22c0,6.24,5,11.24,11.24,11.24s11.24-5,11.24-11.24v-31.22h31.22c6.24,0,11.24-5,11.24-11.24s-5-11.24-11.24-11.24h-31.22v-30.61c0-6.24-5-11.24-11.24-11.24s-11.24,5-11.24,11.24v30.61h-31.22c-6.24,0-11.24,5-11.24,11.24s5,11.24,11.24,11.24Z"/>
</svg>