<?xml version="1.0" encoding="UTF-8"?>
<svg id="Capa_1" data-name="Capa 1" xmlns="http://www.w3.org/2000/svg" viewBox="0 0 512 512">
  <defs>
    <style>
      .cls-1 {
        fill: #fff;
        stroke-width: 0px;
      }
    </style>
  </defs>
  <path class="cls-1" d="M455.17,169.65l-159.34-119.5c-23.65-17.58-56.02-17.58-79.67,0L56.83,169.65c-16.67,12.58-26.5,32.23-26.56,53.11v199.17c0,29.33,23.78,53.11,53.11,53.11h345.23c29.33,0,53.11-23.78,53.11-53.11v-199.17c-.06-20.88-9.88-40.54-26.56-53.11ZM160.13,448.49l-19.89-79.67h126.78c3.04,0,5.69,2.07,6.43,5.02l18.67,74.65h-131.99ZM348.95,448.49h-29.48l-20.26-81.1c-3.68-14.78-16.96-25.15-32.19-25.12h-37.58c22-29.33,63.61-35.28,92.95-13.28,16.72,12.54,26.56,32.22,26.56,53.11v66.39ZM242.72,249.31c0-22,17.83-39.83,39.83-39.83s39.83,17.83,39.83,39.83-17.83,39.83-39.83,39.83-39.83-17.83-39.83-39.83ZM455.17,421.93c0,14.67-11.89,26.56-26.56,26.56h-53.11v-66.39c-.07-34.73-19.54-66.5-50.46-82.32,28.11-23.54,31.82-65.41,8.28-93.53-23.54-28.11-65.41-31.82-93.53-8.28-28.11,23.54-31.82,65.41-8.28,93.53,2.51,3,5.28,5.77,8.28,8.28-17.91,9.33-32.3,24.25-40.98,42.49h-58.58c-14.67-.01-26.57,11.87-26.58,26.54,0,2.17.26,4.34.79,6.45l18.32,73.24h-49.39c-14.67,0-26.56-11.89-26.56-26.56v-199.17c.02-12.53,5.92-24.33,15.93-31.87l159.34-119.5c14.19-10.55,33.61-10.55,47.8,0l159.34,119.5c10.01,7.54,15.91,19.34,15.93,31.87v199.17Z"/>
</svg>